<svg width="1572" height="318" viewBox="0 0 1572 318" fill="none" xmlns="http://www.w3.org/2000/svg">
<path d="M915.117 133.5C915.117 124.5 912.201 118.083 906.367 114.25C900.701 110.25 892.034 108.25 880.367 108.25H820.617C817.117 108.25 815.367 106.583 815.367 103.25V68.5C815.367 65.1667 817.117 63.5 820.617 63.5H880.367C906.867 63.5 927.451 69.25 942.117 80.75C956.784 92.25 964.117 108.333 964.117 129V134C964.117 145.167 962.034 155.167 957.867 164C953.867 172.833 947.867 180.333 939.867 186.5L973.617 254C974.951 257.833 973.617 259.75 969.617 259.75H923.117C919.951 259.75 918.034 258.417 917.367 255.75L895.117 203C890.284 203.5 885.367 203.75 880.367 203.75C879.034 203.75 877.617 203.75 876.117 203.75C874.784 203.75 873.367 203.667 871.867 203.5V254.75C871.867 258.083 870.117 259.75 866.617 259.75H825.617C822.284 259.75 820.617 258.083 820.617 254.75V119.5C820.617 116.167 822.284 114.5 825.617 114.5H866.617C870.117 114.5 871.867 116.167 871.867 119.5V158.75C873.367 158.917 874.784 159 876.117 159C877.617 159 879.034 159 880.367 159C892.034 159 900.701 157 906.367 153C912.201 149 915.117 142.5 915.117 133.5ZM1016.06 202V205.75C1016.06 212.083 1017.9 217.167 1021.56 221C1025.23 224.833 1031.06 226.75 1039.06 226.75C1044.9 226.75 1049.48 226 1052.81 224.5C1056.15 223 1058.06 220.333 1058.56 216.5C1058.9 214.833 1059.4 213.583 1060.06 212.75C1060.73 211.917 1061.98 211.5 1063.81 211.5H1100.56C1103.9 211.5 1105.56 213.167 1105.56 216.5V220C1105.56 226.5 1103.9 232.417 1100.56 237.75C1097.4 243.083 1092.81 247.667 1086.81 251.5C1080.98 255.333 1073.9 258.25 1065.56 260.25C1057.23 262.417 1047.98 263.5 1037.81 263.5C1028.15 263.5 1019.06 262.333 1010.56 260C1002.06 257.833 994.648 254.333 988.314 249.5C981.981 244.667 976.981 238.417 973.314 230.75C969.648 222.917 967.814 213.5 967.814 202.5V180.75C967.814 169.75 969.564 160.417 973.064 152.75C976.731 144.917 981.731 138.583 988.064 133.75C994.564 128.917 1002.15 125.417 1010.81 123.25C1019.48 120.917 1028.98 119.75 1039.31 119.75C1049.48 119.75 1058.73 120.917 1067.06 123.25C1075.56 125.583 1082.81 129 1088.81 133.5C1094.98 137.833 1099.73 143.167 1103.06 149.5C1106.4 155.833 1108.06 162.917 1108.06 170.75V196.75C1108.06 200.25 1106.31 202 1102.81 202H1016.06ZM1039.06 155.25C1032.4 155.25 1026.9 157.083 1022.56 160.75C1018.4 164.417 1016.23 169.417 1016.06 175.75H1061.06C1060.9 169.417 1058.9 164.417 1055.06 160.75C1051.23 157.083 1045.9 155.25 1039.06 155.25ZM1255.78 254.75C1255.78 258.083 1254.11 259.75 1250.78 259.75H1211.03C1207.53 259.75 1205.78 258.083 1205.78 254.75V167.5C1203.61 166 1201.36 164.917 1199.03 164.25C1196.7 163.583 1194.45 163.25 1192.28 163.25C1184.28 163.25 1178.03 165.417 1173.53 169.75C1169.2 174.083 1167.03 181 1167.03 190.5C1167.03 200.333 1169.2 207.5 1173.53 212C1178.03 216.333 1184.28 218.5 1192.28 218.5H1193.28C1196.61 218.5 1198.28 220.25 1198.28 223.75V254.75C1198.28 258.083 1196.61 259.75 1193.28 259.75H1192.28C1180.95 259.75 1170.7 258.417 1161.53 255.75C1152.36 253.083 1144.53 249 1138.03 243.5C1131.7 238 1126.78 231.167 1123.28 223C1119.78 214.667 1118.03 204.917 1118.03 193.75V188.75C1118.03 177.917 1119.61 168.333 1122.78 160C1125.95 151.667 1130.28 144.75 1135.78 139.25C1141.28 133.583 1147.78 129.333 1155.28 126.5C1162.95 123.667 1171.2 122.25 1180.03 122.25C1184.36 122.25 1188.78 122.917 1193.28 124.25C1197.95 125.417 1202.11 127.333 1205.78 130V128.5C1205.78 125.167 1207.53 123.5 1211.03 123.5H1250.78C1254.11 123.5 1255.78 125.167 1255.78 128.5V254.75ZM1318.99 203.25C1318.99 208.583 1320.58 213.25 1323.74 217.25C1327.08 221.083 1332.41 223 1339.74 223C1346.74 223 1351.66 221.75 1354.49 219.25C1357.49 216.583 1358.99 213.167 1358.99 209C1358.99 205.667 1360.74 204 1364.24 204H1403.49C1406.83 204 1408.49 205.667 1408.49 209V212.5C1408.49 221 1406.83 228.5 1403.49 235C1400.16 241.333 1395.41 246.667 1389.24 251C1383.24 255.167 1375.99 258.25 1367.49 260.25C1359.16 262.417 1349.91 263.5 1339.74 263.5C1329.41 263.5 1319.91 262.333 1311.24 260C1302.58 257.833 1294.99 254.333 1288.49 249.5C1282.16 244.667 1277.16 238.417 1273.49 230.75C1269.99 222.917 1268.24 213.5 1268.24 202.5V180.75C1268.24 169.75 1269.99 160.417 1273.49 152.75C1277.16 144.917 1282.16 138.583 1288.49 133.75C1294.99 128.917 1302.58 125.417 1311.24 123.25C1319.91 120.917 1329.41 119.75 1339.74 119.75C1349.91 119.75 1359.16 120.917 1367.49 123.25C1375.99 125.583 1383.24 128.917 1389.24 133.25C1395.41 137.417 1400.16 142.5 1403.49 148.5C1406.83 154.5 1408.49 161.083 1408.49 168.25V171.75C1408.49 175.083 1406.83 176.75 1403.49 176.75H1364.24C1360.74 176.75 1358.99 175.083 1358.99 171.75C1358.99 168.917 1357.58 166.333 1354.74 164C1351.91 161.5 1346.99 160.25 1339.99 160.25C1332.66 160.25 1327.33 162.25 1323.99 166.25C1320.66 170.083 1318.99 174.667 1318.99 180V203.25ZM1470.21 254.5C1470.21 258 1468.54 259.75 1465.21 259.75H1425.96C1422.63 259.75 1420.96 258 1420.96 254.5V63.25C1420.96 60.0833 1422.63 58.5 1425.96 58.5H1464.96C1468.46 58.5 1470.21 60.0833 1470.21 63.25V132C1473.71 128.667 1478.04 126.25 1483.21 124.75C1488.54 123.083 1493.71 122.25 1498.71 122.25C1507.54 122.25 1515.71 123.667 1523.21 126.5C1530.71 129.333 1537.21 133.583 1542.71 139.25C1548.21 144.75 1552.54 151.667 1555.71 160C1558.88 168.333 1560.46 177.917 1560.46 188.75V254.5C1560.46 258 1558.79 259.75 1555.46 259.75H1516.46C1513.13 259.75 1511.46 258 1511.46 254.5V190.5C1511.46 181 1509.46 174.083 1505.46 169.75C1501.63 165.417 1495.71 163.25 1487.71 163.25C1485.04 163.25 1482.04 163.833 1478.71 165C1475.54 166 1472.71 167.667 1470.21 170V254.5Z" fill="#00796B"/>
<path d="M108.857 163.09L65.7143 125.113V220.056L152 258.034L238.286 220.056V106.124C238.286 106.124 209.907 146.917 195.143 133.921C130.429 76.9549 87.2857 30.1692 87.2857 30.1692L130.429 1L167.1 30.1692C167.1 30.1692 212.4 27.1667 242.6 40.25C271.547 52.7905 303 92.5833 303 92.5833V258.034L152 315L1 258.034V87.1354L65.7143 68.1466L152 144.102C152 144.102 138.853 159.382 130.429 163.09C122.004 166.798 108.857 163.09 108.857 163.09Z" fill="#FF7300" stroke="#FFFDFD" stroke-width="0.2"/>
<path d="M370.75 259.75C367.25 259.75 365.5 258.083 365.5 254.75V119.5C365.5 116.167 367.167 114.5 370.5 114.5H412.75C416.25 114.5 418 116.167 418 119.5V141H472C475.167 141 476.75 142.667 476.75 146V175.25C476.75 178.75 475.167 180.5 472 180.5H418V216.25H483.25C486.417 216.25 488 217.917 488 221.25V254.5C488 258 486.417 259.75 483.25 259.75H370.75ZM365.5 107C362 107 360.25 105.333 360.25 102V68.5C360.25 65.1667 362 63.5 365.5 63.5H481.5C484.833 63.5 486.5 65.1667 486.5 68.5V101.75C486.5 105.25 484.833 107 481.5 107H365.5ZM587.078 170C584.578 167.667 581.661 166 578.328 165C574.995 163.833 572.078 163.25 569.578 163.25C561.578 163.25 555.578 165.417 551.578 169.75C547.745 174.083 545.828 181 545.828 190.5C545.828 200.333 547.995 207.5 552.328 212C556.828 216.333 563.078 218.5 571.078 218.5H574.578C577.911 218.5 579.578 220.25 579.578 223.75V254.75C579.578 258.083 577.911 259.75 574.578 259.75H571.078C559.745 259.75 549.495 258.417 540.328 255.75C531.161 253.083 523.328 249 516.828 243.5C510.495 238 505.578 231.167 502.078 223C498.578 214.667 496.828 204.917 496.828 193.75V188.75C496.828 177.917 498.411 168.333 501.578 160C504.745 151.667 509.078 144.75 514.578 139.25C520.078 133.583 526.578 129.333 534.078 126.5C541.745 123.667 549.995 122.25 558.828 122.25C563.661 122.25 568.661 123.083 573.828 124.75C578.995 126.25 583.411 128.667 587.078 132V63.25C587.078 60.0833 588.828 58.5 592.328 58.5H631.328C634.661 58.5 636.328 60.0833 636.328 63.25V254.5C636.328 258 634.661 259.75 631.328 259.75H592.078C588.745 259.75 587.078 258 587.078 254.5V170ZM790.002 202.5C790.002 213.5 788.252 222.917 784.752 230.75C781.419 238.417 776.669 244.667 770.502 249.5C764.502 254.333 757.169 257.833 748.502 260C740.002 262.333 730.669 263.5 720.502 263.5C710.335 263.5 701.002 262.333 692.502 260C684.002 257.833 676.669 254.333 670.502 249.5C664.502 244.667 659.752 238.417 656.252 230.75C652.919 222.917 651.252 213.5 651.252 202.5V128.5C651.252 125.167 652.919 123.5 656.252 123.5H696.002C699.502 123.5 701.252 125.167 701.252 128.5V200.75C701.252 203.417 701.585 206.083 702.252 208.75C702.919 211.417 704.002 213.833 705.502 216C707.002 218 708.919 219.667 711.252 221C713.752 222.333 716.835 223 720.502 223C724.169 223 727.252 222.333 729.752 221C732.252 219.667 734.252 218 735.752 216C737.252 213.833 738.335 211.417 739.002 208.75C739.669 206.083 740.002 203.417 740.002 200.75V128.5C740.002 125.167 741.669 123.5 745.002 123.5H784.752C788.252 123.5 790.002 125.167 790.002 128.5V202.5Z" fill="#FF7300"/>
</svg>
