<?xml version="1.0" encoding="UTF-8"?>
<svg id="Layer_2" data-name="Layer 2" xmlns="http://www.w3.org/2000/svg" viewBox="0 0 434 87.3">
  <defs>
    <style>
      .cls-1 {
        fill: #2a3b8f;
      }

      .cls-2 {
        fill: #231f20;
        font-family: Poppins-Medium, Poppins;
        font-size: 10px;
        font-weight: 500;
        letter-spacing: 0em;
      }

      .cls-3 {
        font-size: 70px;
      }

      .cls-4, .cls-5, .cls-6 {
        fill: #293c8f;
      }

      .cls-4, .cls-7 {
        font-family: AndThenItEnds, 'And Then It Ends';
      }

      .cls-8 {
        fill: #8cc540;
      }

      .cls-7 {
        fill: #8dc541;
      }

      .cls-6 {
        font-family: DeansgateCondensed-Bold, 'Deansgate Condensed';
        font-weight: 700;
      }
    </style>
  </defs>
  <g id="Layer_1-2" data-name="Layer 1">
    <g>
      <text class="cls-3" transform="translate(58.9 62.3)"><tspan class="cls-6" x="0" y="0">E</tspan><tspan class="cls-4" x="40.1" y="0">du</tspan><tspan class="cls-7" x="142.6" y="0">Reach</tspan></text>
      <rect class="cls-5" x="170.1" y="22.5" width="9.6" height="30.8"/>
      <path class="cls-5" d="M181.6,23h-13.4c2.2-2.9,4.5-5.8,6.7-8.6h0c2.2,2.9,4.5,5.8,6.7,8.6Z"/>
      <g>
        <path class="cls-8" d="M50.4,39.1c-.2-4.9-1.9-9.5-4.8-13.4-.2-.2-.4-.5-.6-.7,0,0,4.6-2,10.4-4.2-5.2,1.4-12.7,4.6-12.7,4.6l-3.1,1.4c-.4.2-.8.4-1.1.5-.7.3-1.4.7-2.1,1-.3.2-.6.3-1,.5h0c-.8.4-1.6.8-2.4,1.3-.2.1-.4.2-.6.3-.4.2-.8.4-1.1.6l-1.8,1c-.6.4-1.3.8-2.1,1.2-.7.4-1.3.8-2,1.3-1.1.7-2.1,1.4-3,2-1.1.8-2.2,1.6-3.3,2.4-.3.2-.5.4-.8.6-.6.5-1.3.9-1.9,1.5l-.3.2c-.2.2-.5.4-.7.5,0,0-.1,0-.2.1,0,0-.2.1-.2.2,0,0-.2.1-.3.2-.6.5-1.3,1.1-1.9,1.6-1.5,1.3-2.8,2.4-4,3.6-.7.7-1.4,1.4-2.1,2.1-.5.5-1,1.1-1.5,1.6-.8.9-1.5,1.7-2.2,2.5h-.1c-.2.4-.4.6-.5.8h-.1c-.2.4-.3.6-.5.9-.4.7-.8,1.3-1,1.9-.2.6-.5,1.3-.6,2.2,0,.5,0,.9.2,1.3.2.4.4.8.8,1.1.2.1.3.3.5.4,0,0,.2.1.3.1,0,0,.1,0,.2,0,0,0,0,0,0,0,.5.2,1,.2,1.5,0,.5-.1.8-.4,1.1-.5.3-.2.5-.4.8-.6.2-.2.5-.5.7-.7h0c0,0,.5-.6.5-.6l.6-.6.6-.5c.6-.5,1.2-1,1.9-1.5,0,0,0,0,0,0,.2.2.4.4.6.6,3.4,3,7.5,4.9,11.8,5.7,1,.2,2,.3,3.1.3h0c0,0,.2,0,.3,0,.3,0,.5,0,.7,0h0c.3,0,.6,0,.9,0,.8,0,1.6-.1,2.5-.2,4.9-.7,9.5-2.9,13.1-6.4.5-.5,1-1,1.4-1.5,3.5-3.9,5.6-8.9,6-14.1,0-.3,0-.5,0-.8,0-.4,0-.7,0-1s0-.4,0-.5c0-.2,0-.3,0-.5ZM6.5,57.6c-.1.1-.3.3-.4.4,0,0-.1.1-.2.2l-.2.2c-.1.2-.3.3-.4.5l-.4.5-.2.2c-.2.2-.3.4-.5.6-.4.4-.8.7-1.1.8,0,0-.1,0-.2,0s0,0,0,0c0,0,0,0,0,0,0,0,0,0,0,0h0s0,0-.1,0c0,0-.2-.1-.2-.2-.3-.2-.4-.5-.4-1,0-.4.1-1,.4-1.6.2-.5.5-1,.9-1.6.1-.2.3-.5.5-.7h0c.2-.3.3-.5.5-.7v-.2c.6-.7,1.2-1.3,1.8-2,.2.3.3.5.5.8.4.6.9,1.3,1.4,1.8.2.2.4.5.6.7-.6.5-1.2,1-1.8,1.5ZM10.1,54.7c-.2-.2-.4-.4-.5-.6-.6-.7-1.1-1.5-1.6-2.2-.2-.3-.3-.5-.5-.8.7-.8,1.5-1.6,2.3-2.4,1-1,2-2,3.1-3,0,.3.1.6.2,1,.3,1.7.8,3.3,1.4,4.9.1.3.2.5.3.7-1.6.7-3.1,1.5-4.5,2.4ZM12.4,56.9c-.2-.2-.4-.4-.6-.5,1.1-.7,2.3-1.3,3.5-1.9h0c0,0,.1,0,.2,0,.1.3.3.5.4.8,1,2,2.2,3.9,3.6,5.7-2.6-.9-5-2.2-7.2-4ZM25,61.9c-.6,0-1.1,0-1.8-.2-2.1-2.2-3.8-4.6-5.2-7.4-.1-.2-.2-.5-.4-.8.3,0,.6-.2.9-.3.9-.3,1.7-.5,2.6-.6,1.4-.3,2.5-.4,3.9-.5v9.7ZM25,49.9c-1.5,0-2.9.2-4.4.5-.3,0-.5.1-.8.2h0s-.1,0-.1,0c0,0,0,0-.3,0-.1,0-.3,0-.5.2-.7.2-1.4.4-2.1.6,0-.2-.2-.5-.3-.8-.7-1.9-1.2-3.8-1.5-5.7,0-.4-.1-.7-.2-1.1.2-.2,2.2-1.8,2.3-1.8h7.8v7.8ZM25,39.6h-4.8c.8-.6,2.3-1.6,4.8-3.6v3.6ZM27.1,34.5c.6-.3,1.3-.8,1.9-1.1.2-.1.5-.3.7-.4.3-.2.6-.4.9-.5.3-.2.6-.3.9-.5.3-.2.7-.4,1.1-.6.2-.1.5-.3.7-.4.8-.5,1.7-.9,2.5-1.4.2,0,.3-.2.5-.3,0,.2.1.4.2.6,0,.1,0,.3.1.4.9,2.8,1.4,6.3,1.5,9.4h-10.9v-5.1ZM27.1,42.1h10.8c-.2,2.9-1.1,6.3-2.4,9.4-2.7-.9-5.3-1.5-8.4-1.6v-7.8ZM28.6,61.8c-.4,0-.9,0-1.5.1v-9.7c2.5.1,5,.5,7.4,1.3-1.5,3.1-3.5,5.9-5.9,8.3ZM32.6,61c1.7-2.1,3.2-4.3,4.3-6.7,1.4.6,2.7,1.3,4,2.1-2.4,2.1-5.2,3.8-8.3,4.7ZM42.6,54.9c-1.4-.9-3-1.7-4.7-2.4,1.3-3.3,2.1-6.9,2.4-10.3h7.8c-.4,4.6-2.3,9.1-5.5,12.7ZM40.4,39.6c-.1-3.2-.8-7.4-1.8-10.4,0-.1,0-.2-.1-.3,0-.2-.1-.4-.2-.6,0,0,.1,0,.2-.1,0,0,4.2-2.1,4.4-2.2.1.1.2.3.3.4,0,.1.2.3.3.4,2.7,3.5,4.5,8,4.7,12.8h-7.8Z"/>
        <g>
          <path class="cls-1" d="M12.6,12.2s.2-.1.8-.4c8.7-4.9,17.5-4.9,26.2-.2.4.2.7.4.7.4,0,1.3,0,3.3,0,4.8,3.8-1.6,7.5-3.1,11.3-4.6-.2-.2-.4-.3-.5-.3-8-3.5-16-7-24.1-10.4-.4-.2-1,0-1.4,0-6.2,2.7-12.3,5.4-18.5,8.1-1.9.8-3.8,1.7-5.8,2.6,3.8,1.6,7.5,3.1,11.2,4.6,0-1.3,0-3.4,0-4.5Z"/>
          <path class="cls-8" d="M25.2,15s.2,0,.3,0c.3,0,.5,0,.8,0,.3,0,.7,0,1.1,0h0c0,0,.2,0,.3,0,1.2,0,2.4.2,3.6.5,2.9.6,5.6,1.6,8.1,3.1,0-2.1,0-4.5,0-6.1,0,0-.3-.2-.7-.4-8.2-4.3-16.4-4.3-24.5.2-.6.3-.8.4-.8.4,0,1.4,0,3.7,0,5.7,2.6-1.5,5.5-2.5,8.4-3.1,1.1-.2,2.2-.3,3.3-.4Z"/>
          <path class="cls-1" d="M3.8,20.6c-.1.2-.3.4-.3.6-.2.8.2,1.7,1,1.9.8.2,1.7-.2,1.9-1,.2-.5,0-1.1-.3-1.5l-1.2-5.2-1.2,5.1Z"/>
        </g>
        <path class="cls-1" d="M2.3,42c.2,2.9.9,5.6,2.1,8.2.5-.5,1.1-1,1.7-1.6-.9-2.1-1.4-4.5-1.6-6.4h7.8c0,.2,0,.4,0,.7.3-.3.6-.6,1-.8.9-.8,1.9-1.3,3-2.4h-1.8c.2-3.4.9-7.9,2.3-11.1,2.4.9,5.2,1.5,8.2,1.7v3.3c.8-.5,1.7-.9,2.1-1.4v-1.9c1.5,0,2.5,0,3.7-.2,3.9-2.2,8.3-4.3,13-6.4-.2-.3-.4-.5-.7-.7-3.4-3.3-7.6-5.5-12.2-6.5-1.1-.2-2.2-.4-3.4-.4,0,0-.2,0-.3,0h0c-.4,0-.7,0-1,0s-.5,0-.7,0c0,0-.2,0-.3,0h0c-1,0-2.1.2-3.1.3-4.4.8-8.5,2.7-11.9,5.7-.5.5-1,.9-1.5,1.4-4,4.2-6.4,9.8-6.6,15.6,0,.2,0,.3,0,.5,0,.2,0,.4,0,.5,0,.3,0,.7,0,1,0,.3,0,.5,0,.8ZM41.2,24.2c-1.2.7-2.5,1.3-3.7,1.9-1-2.3-2.3-4.4-3.8-6.4,2.8,1,5.3,2.6,7.5,4.6ZM27.1,18.4c.8,0,1.8.1,2.6.3,2.2,2.4,3.9,5.1,5.3,8.2-2.5.8-5,1.2-7.9,1.2v-9.6ZM23.2,18.6c.7,0,1.2-.2,1.8-.2v9.5c-2.3-.2-4.9-.7-7.3-1.6,1.4-2.8,3.2-5.4,5.4-7.7ZM19.5,19.4c-1.5,1.9-2.7,3.9-3.7,6-1.2-.6-2.3-1.2-3.4-1.9,2.1-1.8,4.6-3.2,7.2-4ZM10.6,25.2c1.5,1,2.8,1.8,4.2,2.5-1.4,3.5-2.4,8.4-2.6,12h-7.7c.2-5.9,2.5-10.8,6.1-14.5Z"/>
      </g>
      <text class="cls-2" transform="translate(196.6 81.4)"><tspan x="0" y="0">Expanding Access to Quality Education.</tspan></text>
    </g>
  </g>
</svg>