<?xml version="1.0" encoding="UTF-8"?>
<svg id="Layer_2" data-name="Layer 2" xmlns="http://www.w3.org/2000/svg" viewBox="0 0 393.7 69.9">
  <defs>
    <style>
      .cls-1 {
        fill: #f89631;
      }

      .cls-2 {
        fill: #006a5d;
      }

      .cls-3 {
        fill: #f89632;
      }
    </style>
  </defs>
  <g id="Layer_1-2" data-name="Layer 1">
    <path class="cls-1" d="M102.1,34.4v10.9h-9.5c-1.3,0-2.2.2-2.8.6-.5.4-.8,1-.8,1.9s.3,1.7.8,2c.6.3,1.7.5,3.4.5h9.8v14h-11.5c-5.4,0-9.5-1.3-12.4-3.9-2.9-2.6-4.3-6.3-4.3-11.2v-19.2c0-4.7,1.3-8.3,4-10.9s6.5-3.9,11.4-3.9h12.7v14.1h-9.3c-2.5,0-3.8.8-3.8,2.4s.3,1.6.9,2c.6.4,1.7.6,3.2.6h8.1Z"/>
    <path class="cls-1" d="M132.5,15.3h13.4v29.9c0,5.5-1.4,10-4.3,13.4-1.7,2-3.8,3.6-6.3,4.7s-5.2,1.8-7.9,1.8c-5.3,0-9.9-1.8-13.5-5.4s-5.5-8-5.5-13.2,1.8-9.4,5.5-13.1c3.6-3.7,8-5.5,12.9-5.5s2,0,3.6.2v14.8c-1.1-.9-2.2-1.3-3.3-1.3s-2.6.5-3.6,1.5c-1,1-1.5,2.2-1.5,3.7s.5,2.6,1.5,3.6c1,1,2.3,1.5,3.7,1.5,3.5,0,5.2-2.4,5.2-7.2V15.3Z"/>
    <path class="cls-1" d="M153,29h13.4v20.2c0,2,.9,3.1,2.6,3.1s2.5-1,2.5-3.1v-20.2h13.4v20c0,4.7-1.5,8.6-4.6,11.8-3.1,3.2-6.9,4.8-11.4,4.8s-9.2-1.9-12.3-5.6c-2.4-2.9-3.6-6.9-3.6-12.1v-18.9Z"/>
    <path class="cls-2" d="M208.4,28.5v35.9h-14.6V15.3h18.7c5.7,0,10.1,1.4,13.3,4.2,3.5,3.2,5.2,7.2,5.2,12s-2.2,9.1-6.5,12.5l8.4,20.2h-15.3l-7.1-15.8v-12.6h1.2c3.1,0,4.6-1.3,4.6-4s-1.8-3.5-5.3-3.5h-2.6Z"/>
    <path class="cls-2" d="M272.1,48.6h-20.4c-.3-1-.5-2-.5-2.8s.2-2.4.6-3.5h6.8c-.5-2.7-2-4-4.5-4s-3,.7-4.1,2.1c-1.1,1.4-1.6,3.3-1.6,5.5s.5,4.2,1.5,5.6c1,1.4,2.4,2.2,4,2.2s2.6-.7,3.9-2l7.7,9.2c-3.6,2.8-7.5,4.2-11.9,4.2s-9.8-1.8-13.4-5.4c-3.6-3.6-5.4-8-5.4-13.3s1.8-9.7,5.5-13.3c3.7-3.6,8.1-5.4,13.5-5.4s9.6,1.8,13.1,5.3c3.5,3.5,5.3,7.9,5.3,13.1s0,1.4-.1,2.5Z"/>
    <path class="cls-2" d="M297.6,50.9v13.9c-1.1.2-2.1.3-3,.3-5.4,0-9.9-1.8-13.5-5.3s-5.4-8-5.4-13.3,1.8-9.6,5.4-13.2c3.6-3.6,8-5.4,13.2-5.4s10.4,1.7,13.7,5.1c3.3,3.4,5,8,5,13.9v17.6h-13.4v-16.6c0-1.9-.5-3.4-1.4-4.5-.9-1.1-2.2-1.7-3.7-1.7s-2.6.5-3.7,1.5c-1,1-1.5,2.3-1.5,3.7s.5,2.7,1.4,3.7c.9,1,2.1,1.4,3.6,1.4s2.3-.3,3.3-.9Z"/>
    <path class="cls-2" d="M342.9,47.9l13.3-.5c-.4,5.2-2.3,9.4-5.8,12.8-3.5,3.3-7.7,5-12.7,5s-9.7-1.8-13.4-5.5-5.4-8.2-5.4-13.5,1.8-9.4,5.5-13,8.1-5.4,13.2-5.4,8.4,1.4,11.9,4.2c3.4,2.8,5.6,6.4,6.4,10.8l-13.6.5c-1.2-1.5-2.7-2.3-4.5-2.3s-2.8.5-3.8,1.5c-1,1-1.5,2.3-1.5,3.8s.5,2.9,1.6,3.9c1,1.1,2.3,1.6,3.9,1.6,2.3,0,3.9-1.3,4.9-4Z"/>
    <path class="cls-2" d="M375.6,15.3v15c2.3-1.7,4.6-2.5,6.8-2.5,3.5,0,6.2,1.2,8.2,3.7,2,2.5,3,5.9,3,10.1v22.7h-13.4v-18.9c0-1.5-.2-2.6-.5-3.1-.3-.5-1-.8-1.9-.8-1.5,0-2.3,1.1-2.3,3.3v19.5h-13.4V15.3h13.4Z"/>
    <g>
      <path class="cls-1" d="M44.9,8.1c-1.1-.4-2.3-.9-3.4-1.3-2-.8-1.7-.7-3.8-.2v.7c-.4.9-.5,1.2-1.2,1.8-.6.5-1.5.7-2.4.6-3.3-.3-3.9-4.7-.6-5.7,1.7-.5,2.3.5,3.1.5.7,0,1.7-.7,2.9-.6,1.3,0,17.2,6.3,18.6,6.8,2,.8,3.5,1.1,3.6,3.7,0,2,0,4.2,0,6.3-1.7.3-3,1.8-3,3.7s1.7,3.7,3.7,3.7,3.7-1.7,3.7-3.7-1.3-3.3-3-3.7v-6.5s3.7-1.7,3.7-1.7c0,0-.2-.1-.3-.1l-1.5-.6c-.7-.3-1.4-.6-2.1-.8l-12.5-4.9c-2.8-1.1-5.6-2.2-8.4-3.2-1.4-.5-2.8-1.1-4.2-1.6-.7-.3-1.4-.5-2.1-.8-1-.4-1.1-.7-2.1-.3-5.5,2.1-11.3,4.2-16.8,6.3-1.3.5-15.7,6-16.6,6.6,0,0,0,0,0,0,0,0,0,0,0,0l14.2,5.3c4.9,1.9,9.6,3.5,14.5,5.3,1.7.6,1.2.5,3.6-.3l25.4-9.3,1.3-.6c-.5-.4-6-2.5-7-2.8-2.4-.9-4.8-2-7.2-2.7h0Z"/>
      <path class="cls-2" d="M50.4,64.9c-.3-.7-1.4-2.1-1.8-2.7l-3.8,2.1c-9.2,4.3-19.5,2.6-27.4-3.8-.5-.4-1-1-1.5-1.4-1.3-1.2-3-3.5-3.9-5.1-2.5-4.3-3.7-9.1-3.4-14.4.3-4.8,1.9-9.5,4.8-13,.8-1,.7-.4.7-2.2,0-.8.3-2.3-.1-2.9-.7-.1-1,.5-1.8,1.4-1.3,1.3-3.3,4.5-4,6-4,8.6-3.9,18.5,1.1,26.7,4.5,7.5,11,12,19.8,13.8,5.8,1.1,11.8.2,17.1-2.1,1.1-.5,3.6-1.8,4.3-2.4h0Z"/>
      <path class="cls-1" d="M29.1,60.7c-1.5-2-2.9-4.7-4.1-7.5-1.2-2.9-1.8-6-2.2-9.5h-7.1c.5,4.2,2.6,8.1,4.7,10.5,1.7,1.9,3.8,4,6.2,5.3.7.3,2,1.1,2.5,1.2h0Z"/>
      <path class="cls-1" d="M32.9,60.8v-17s-6.9,0-6.9,0c.4,4.7,2.1,9.7,4.4,13.6.5.9,2,3.1,2.6,3.5Z"/>
      <path class="cls-1" d="M35.9,60.7l2.4-3.4c2.2-3.5,4.2-9.3,4.4-13.6h-6.9c0,2.9-.2,15.5,0,17Z"/>
      <path class="cls-1" d="M15.6,41h7.2c0-5.1.8-5.4,1.3-8.7-2.4-.5-5.3-1.7-5.9-1.9-.2.7-.7,1.4-1,2.2-.3.8-.6,1.6-.8,2.5-.6,1.9-.8,3.9-.8,5.9h0Z"/>
      <path class="cls-2" d="M30.1,27.3l-12.9-4.7c-.2,3.7-.4,4,2,5.2,3.4,1.6,7.9,2.5,11.6,2.7,2.5.2,4.8-.1,7.2,0,2.9-.3,9.8-1.8,12.2-3.4.7-.5.9-.4,1-1.6-1.1.3-5.8,2.5-6.5,2.1-1.4-1.1,2.1-2,3.1-2.3,3.9-1.5,3.5-.9,3.5-2.5-1.1.3-4.9,1.8-6.3,2.3-1,.4-1.7.6-1.5-.8.8-.5,6.9-2.8,7.9-3.1v-1s-15.6,5.5-15.6,5.5c-1.2.4-4.4,1.8-5.5,1.8h0Z"/>
      <path class="cls-1" d="M25.9,41h7c0-1.4.2-6.5,0-7.6l-5.7-.5c-.8,2.8-1.2,4.9-1.2,8.1h0Z"/>
      <path class="cls-1" d="M35.8,33.4v7.6s6.9,0,6.9,0c0-2.9-.4-5.7-1.3-8.2l-5.5.6Z"/>
      <path class="cls-2" d="M44.5,62c2.7-.7,5-2.8,6.8-4.6.8-.8,2.8-3.7,3.4-4.8,2.7-5,3.6-10.5,2.6-16.4-.5-2.8-2.2-7.6-3.7-9.4-.6,1.3-.8.7-.2,2,1.2,2.6,1.9,3.7,2.5,7,1.5,7.6-.4,14.1-4.8,19.9-.4.6-.9,1.1-1.5,1.7-1.1,1.1-1.6,1.8-3.3,3.1l-1.4,1s-.2.2-.2.2c0,0,0,0,0,0l-.2.2Z"/>
      <path class="cls-2" d="M24.4,62.2c-12.1-7.5-16.2-21.1-9.1-33.8-.2-.3-.4-.7-.7-1-1.6,1.9-3.3,6.7-3.8,9.4-1.6,8.5,2.1,18.5,9.1,23.2.9.6,3.1,2,4.3,2.2h0Z"/>
      <path class="cls-1" d="M46.7,43.7h-.9c-.2,3.4-1,6.4-2.2,9.4-.3.8-1,2-1.2,2.7l-2.3,3.7c-.5.8-.7.7-.9,1.2,2.4-.7,5.1-2.9,6.8-4.5,3.1-2.8,6.2-8.4,6.6-12.5h-6s0,0,0,0Z"/>
      <path class="cls-1" d="M45.9,40.8c.3.3.4.2,1.5.2h5.3c.4-2.7-1.2-8.9-2.6-10.7-.7.1-2,.7-2.7.9-.8.3-1.9.7-2.8.8l.3,1c0,.8.6,2.6.7,3.7.1,1,.2,3.3.4,4h0Z"/>
      <path class="cls-3" d="M49,19.6c1.2,0,8.9-3.1,10.3-3.7v-.8s-7.9,3.1-7.9,3.1c-.8.3-2.3.5-2.4,1.5Z"/>
    </g>
  </g>
</svg>